<svg width="32" height="32" viewBox="0 0 32 32" fill="none" xmlns="http://www.w3.org/2000/svg">
<path d="M16.6666 2.66663L13.3333 7.99996H18.6666L15.3333 13.3333" stroke="#141B34" stroke-width="1.5" stroke-linecap="round" stroke-linejoin="round"/>
<path d="M22.6667 8C23.9238 8 24.5523 8 24.9429 8.39052C25.3334 8.78105 25.3334 9.40959 25.3334 10.6667V14M9.33341 8C8.07633 8 7.4478 8 7.05727 8.39052C6.66675 8.78105 6.66675 9.40959 6.66675 10.6667V14" stroke="#141B34" stroke-width="1.5" stroke-linecap="round" stroke-linejoin="round"/>
<path d="M26.6666 17.3334H23.9999C22.7429 17.3334 22.1143 17.3334 21.7238 17.7239C21.3333 18.1144 21.3333 18.743 21.3333 20V26.6667C21.3333 27.9238 21.3333 28.5523 21.7238 28.9428C22.1143 29.3334 22.7429 29.3334 23.9999 29.3334H26.6666C27.9237 29.3334 28.5522 29.3334 28.9427 28.9428C29.3333 28.5523 29.3333 27.9238 29.3333 26.6667V20C29.3333 18.743 29.3333 18.1144 28.9427 17.7239C28.5522 17.3334 27.9237 17.3334 26.6666 17.3334Z" stroke="#141B34" stroke-width="1.5" stroke-linecap="round" stroke-linejoin="round"/>
<path d="M21.3333 25.3334H29.3333" stroke="#141B34" stroke-width="1.5" stroke-linecap="round" stroke-linejoin="round"/>
<path d="M21.3333 21.3334H29.3333" stroke="#141B34" stroke-width="1.5" stroke-linecap="round" stroke-linejoin="round"/>
<path d="M8.00008 17.3334H5.33341C4.07633 17.3334 3.4478 17.3334 3.05727 17.7239C2.66675 18.1144 2.66675 18.743 2.66675 20V26.6667C2.66675 27.9238 2.66675 28.5523 3.05727 28.9428C3.4478 29.3334 4.07633 29.3334 5.33341 29.3334H8.00008C9.25716 29.3334 9.88569 29.3334 10.2762 28.9428C10.6667 28.5523 10.6667 27.9238 10.6667 26.6667V20C10.6667 18.743 10.6667 18.1144 10.2762 17.7239C9.88569 17.3334 9.25716 17.3334 8.00008 17.3334Z" stroke="#141B34" stroke-width="1.5" stroke-linecap="round" stroke-linejoin="round"/>
<path d="M2.66675 25.3334H10.6667" stroke="#141B34" stroke-width="1.5" stroke-linecap="round" stroke-linejoin="round"/>
<path d="M2.66675 21.3334H10.6667" stroke="#141B34" stroke-width="1.5" stroke-linecap="round" stroke-linejoin="round"/>
</svg>
