<svg width="32" height="32" viewBox="0 0 32 32" fill="none" xmlns="http://www.w3.org/2000/svg">
<path d="M5.62959 29.3264V24.5934C5.62959 22.8982 5.18565 22.017 4.31305 20.5437C3.26703 18.7777 2.66663 16.7166 2.66663 14.5154C2.66663 7.97151 7.97288 2.66663 14.5185 2.66663C21.0641 2.66663 26.3704 7.97151 26.3704 14.5154C26.3704 15.2884 26.3704 15.6749 26.4026 15.8916C26.4797 16.4096 26.7214 16.8552 26.9592 17.3164L29.3333 21.9209L27.4674 22.8536C26.9266 23.1238 26.6564 23.259 26.468 23.5085C26.2796 23.7578 26.2266 24.0394 26.1205 24.6025L26.1101 24.6574C25.8672 25.9474 25.599 27.3714 24.8438 28.2698C24.5772 28.587 24.247 28.8448 23.8745 29.0265C23.2596 29.3264 22.5036 29.3264 20.9916 29.3264C20.292 29.3264 19.5904 29.3425 18.8909 29.3256C17.2329 29.2852 16 27.8912 16 26.2725" stroke="#141B34" stroke-width="2" stroke-linecap="round" stroke-linejoin="round"/>
<path d="M19.184 14.042C18.6156 14.042 18.0972 13.8269 17.7045 13.473M19.184 14.042C19.184 15.5698 18.2988 17.021 16.5948 17.021C14.8908 17.021 14.0057 18.4721 14.0057 20M19.184 14.042C22.0497 14.042 22.0497 9.57352 19.184 9.57352C18.9236 9.57352 18.6737 9.61866 18.4416 9.70161C18.5816 6.37088 13.7798 5.46662 12.6923 8.58686M10.6431 16.0717C10.2414 16.6458 9.57788 17.021 8.82729 17.021C6.15061 17.021 5.86964 12.971 8.49761 12.577C6.93173 9.91076 10.2232 6.92041 12.6923 8.58686C13.4844 9.12142 14.0057 10.0309 14.0057 11.063" stroke="#141B34" stroke-width="2" stroke-linecap="round" stroke-linejoin="round"/>
</svg>
