<svg width="32" height="32" viewBox="0 0 32 32" fill="none" xmlns="http://www.w3.org/2000/svg">
<path d="M7.24279 24.7572C8.011 25.5253 9.25653 25.5253 10.0247 24.7572L16.0004 18.7817L21.9752 24.7562C22.743 25.5241 23.9878 25.5245 24.7562 24.7572C25.5253 23.9892 25.5257 22.743 24.7572 21.9745L18.7824 16L24.7572 10.0255C25.525 9.25764 25.5254 8.01289 24.7581 7.24457C23.99 6.47554 22.7437 6.47513 21.9752 7.24366L16.0004 13.2182L10.0247 7.24276C9.25653 6.47458 8.011 6.47458 7.24279 7.24276C6.47457 8.01093 6.47457 9.25638 7.24279 10.0246L13.2185 16L7.24279 21.9754C6.47457 22.7436 6.47457 23.989 7.24279 24.7572Z" stroke="#141B34" stroke-width="2" stroke-linecap="round" stroke-linejoin="round"/>
</svg>
