<svg width="32" height="32" viewBox="0 0 32 32" fill="none" xmlns="http://www.w3.org/2000/svg">
<path d="M21.3334 2.66663V7.99996M10.6667 2.66663V7.99996" stroke="#141B34" stroke-width="1.5" stroke-linecap="round" stroke-linejoin="round"/>
<path d="M28 16C28 10.9717 28 8.45757 26.4379 6.89547C24.8759 5.33337 22.3616 5.33337 17.3333 5.33337H14.6667C9.63835 5.33337 7.1242 5.33337 5.56209 6.89547C4 8.45757 4 10.9717 4 16V18.6667C4 23.695 4 26.2092 5.56209 27.7712C7.1242 29.3334 9.63835 29.3334 14.6667 29.3334" stroke="#141B34" stroke-width="1.5" stroke-linecap="round" stroke-linejoin="round"/>
<path d="M4 13.3334H28" stroke="#141B34" stroke-width="1.5" stroke-linecap="round" stroke-linejoin="round"/>
<path d="M24.3561 24.9348L22.6666 24V21.689M27.9999 24C27.9999 26.9454 25.6121 29.3333 22.6666 29.3333C19.7211 29.3333 17.3333 26.9454 17.3333 24C17.3333 21.0545 19.7211 18.6666 22.6666 18.6666C25.6121 18.6666 27.9999 21.0545 27.9999 24Z" stroke="#141B34" stroke-width="1.5" stroke-linecap="round" stroke-linejoin="round"/>
</svg>
