<svg width="32" height="32" viewBox="0 0 32 32" fill="none" xmlns="http://www.w3.org/2000/svg">
<path fill-rule="evenodd" clip-rule="evenodd" d="M8.24251 13.7777C6.93883 13.7777 6.66675 14.0336 6.66675 15.2592V17.4814C6.66675 18.7072 6.93883 18.9629 8.24251 18.9629H11.394V27.8518C11.394 29.0774 11.6661 29.3333 12.9698 29.3333H16.1213C17.425 29.3333 17.697 29.0774 17.697 27.8518V18.9629H21.2357C22.2245 18.9629 22.4793 18.7822 22.7509 17.8885L23.4262 15.6662C23.8914 14.1352 23.6047 13.7777 21.911 13.7777H17.697V10.074C17.697 9.25584 18.4025 8.59255 19.2727 8.59255H23.7577C25.0613 8.59255 25.3334 8.33675 25.3334 7.11107V4.14811C25.3334 2.92243 25.0613 2.66663 23.7577 2.66663H19.2727C14.9214 2.66663 11.394 5.98304 11.394 10.074V13.7777H8.24251Z" stroke="#141B34" stroke-width="1.5" stroke-linejoin="round"/>
</svg>
