<svg width="32" height="32" viewBox="0 0 32 32" fill="none" xmlns="http://www.w3.org/2000/svg">
<path d="M17.1898 3.74647L28.6501 12.794C29.0816 13.1346 29.3333 13.654 29.3333 14.2038C29.3333 15.1959 28.5292 16 27.537 16H26.6666V20.6667C26.6666 24.4379 26.6666 26.3235 25.495 27.4951C24.3234 28.6667 22.4378 28.6667 18.6666 28.6667H13.3333C9.56205 28.6667 7.67644 28.6667 6.50487 27.4951C5.33329 26.3235 5.33329 24.4379 5.33329 20.6667V16H4.46284C3.47083 16 2.66663 15.1959 2.66663 14.2038C2.66663 13.654 2.91836 13.1346 3.34983 12.794L14.8101 3.74647C15.1489 3.47891 15.5681 3.33337 16 3.33337C16.4318 3.33337 16.851 3.47891 17.1898 3.74647Z" stroke="#141B34" stroke-width="2" stroke-linecap="round" stroke-linejoin="round"/>
<path d="M19.3333 28.6667V22.6667C19.3333 21.4206 19.3333 20.7975 19.0653 20.3334C18.8898 20.0294 18.6373 19.7768 18.3333 19.6014C17.8692 19.3334 17.2461 19.3334 16 19.3334C14.7538 19.3334 14.1308 19.3334 13.6666 19.6014C13.3626 19.7768 13.1101 20.0294 12.9346 20.3334C12.6666 20.7975 12.6666 21.4206 12.6666 22.6667V28.6667" stroke="#141B34" stroke-width="2" stroke-linecap="round" stroke-linejoin="round"/>
</svg>
