<svg width="32" height="32" viewBox="0 0 32 32" fill="none" xmlns="http://www.w3.org/2000/svg">
<path d="M5.99996 12.6666H5.33329C4.07621 12.6666 3.44768 12.6666 3.05715 13.0571C2.66663 13.4477 2.66663 14.0762 2.66663 15.3333V26.6666C2.66663 27.9237 2.66663 28.5522 3.05715 28.9428C3.44768 29.3333 4.07621 29.3333 5.33329 29.3333H5.99996C7.25704 29.3333 7.88557 29.3333 8.27611 28.9428C8.66663 28.5522 8.66663 27.9237 8.66663 26.6666V15.3333C8.66663 14.0762 8.66663 13.4477 8.27611 13.0571C7.88557 12.6666 7.25704 12.6666 5.99996 12.6666Z" stroke="#141B34" stroke-width="1.5"/>
<path d="M8.66663 5.66663C8.66663 7.32348 7.32348 8.66663 5.66663 8.66663C4.00977 8.66663 2.66663 7.32348 2.66663 5.66663C2.66663 4.00977 4.00977 2.66663 5.66663 2.66663C7.32348 2.66663 8.66663 4.00977 8.66663 5.66663Z" stroke="#141B34" stroke-width="1.5"/>
<path d="M16.4346 12.6666H15.3333C14.0762 12.6666 13.4477 12.6666 13.0571 13.0571C12.6666 13.4477 12.6666 14.0762 12.6666 15.3333V26.6666C12.6666 27.9237 12.6666 28.5522 13.0571 28.9428C13.4477 29.3333 14.0762 29.3333 15.3333 29.3333H16C17.257 29.3333 17.8856 29.3333 18.2761 28.9428C18.6666 28.5522 18.6666 27.9237 18.6666 26.6666L18.6668 22.0001C18.6668 19.791 19.3708 18.0001 21.4505 18.0001C22.4902 18.0001 23.3333 18.8956 23.3333 20.0001V26.0001C23.3333 27.2572 23.3333 27.8857 23.7238 28.2762C24.1142 28.6668 24.7429 28.6668 26 28.6668H26.6649C27.9217 28.6668 28.5501 28.6668 28.9406 28.2764C29.3312 27.886 29.3313 27.2576 29.3316 26.0008L29.3334 18.6669C29.3334 15.3533 26.1818 12.6669 23.0624 12.6669C21.2865 12.6669 19.7022 13.5374 18.6668 14.8986C18.6666 14.0585 18.6666 13.6385 18.4842 13.3266C18.3686 13.1291 18.2041 12.9647 18.0066 12.8491C17.6948 12.6666 17.2748 12.6666 16.4346 12.6666Z" stroke="#141B34" stroke-width="1.5" stroke-linejoin="round"/>
</svg>
