<svg width="32" height="32" viewBox="0 0 32 32" fill="none" xmlns="http://www.w3.org/2000/svg">
<path d="M12 8.00004C12.0622 6.54215 12.2471 5.61317 12.7966 4.89839C13.0099 4.62103 13.2586 4.37276 13.5365 4.15993C14.6159 3.33337 16.1827 3.33337 19.3163 3.33337H19.9843C23.7629 3.33337 25.6521 3.33337 26.8261 4.50493C28 5.67649 28 7.56213 28 11.3333V20.6667C28 24.4379 28 26.3235 26.8261 27.4951C25.6523 28.6667 23.7629 28.6667 19.9843 28.6667H19.3163C16.1827 28.6667 14.6159 28.6667 13.5365 27.8402C13.2586 27.6274 13.0099 27.3791 12.7967 27.1018C12.2471 26.3868 12.0622 25.4578 12 23.9995" stroke="#141B34" stroke-width="1.5" stroke-linecap="round" stroke-linejoin="round"/>
<path d="M20 16H4M16.6667 20.6668C16.6667 20.6668 21.3333 17.2299 21.3333 16.0002C21.3333 14.7704 16.6667 11.3335 16.6667 11.3335" stroke="#141B34" stroke-width="1.5" stroke-linecap="round" stroke-linejoin="round"/>
</svg>
