<svg width="32" height="32" viewBox="0 0 32 32" fill="none" xmlns="http://www.w3.org/2000/svg">
<path d="M20.6667 10.7206C20.6118 9.17296 20.4288 8.20601 19.8194 7.44894C18.9486 6.36714 17.4592 6.02752 14.4807 5.34828L13.1456 5.04381C8.61991 4.01176 6.35707 3.49573 4.84521 4.68422C3.33337 5.87272 3.33337 8.1676 3.33337 12.7574V19.2427C3.33337 23.8324 3.33337 26.1273 4.84521 27.3157C6.35707 28.5043 8.61991 27.9883 13.1456 26.9561L14.4807 26.6517C17.4592 25.9725 18.9486 25.6328 19.8194 24.5511C20.4288 23.794 20.6118 22.8271 20.6667 21.2793" stroke="#141B34" stroke-width="1.5" stroke-linecap="round" stroke-linejoin="round"/>
<path d="M24.6666 12.0156C24.6666 12.0156 28.6666 14.9616 28.6666 16.0156C28.6666 17.0697 24.6666 20.0156 24.6666 20.0156M27.9999 16.0156H11.3333" stroke="#141B34" stroke-width="1.5" stroke-linecap="round" stroke-linejoin="round"/>
</svg>
