<svg width="32" height="32" viewBox="0 0 32 32" fill="none" xmlns="http://www.w3.org/2000/svg">
<path d="M2.68982 20C5.62258 20 8.00006 22.3775 8.00006 25.3103" stroke="#141B34" stroke-width="1.5" stroke-linecap="round" stroke-linejoin="round"/>
<path d="M24 25.3103V25.1877C24 22.3227 26.3227 20 29.1877 20" stroke="#141B34" stroke-width="1.5" stroke-linecap="round" stroke-linejoin="round"/>
<path d="M8.00006 6.68982C8.00006 9.62258 5.62258 12.0001 2.68982 12.0001" stroke="#141B34" stroke-width="1.5" stroke-linecap="round" stroke-linejoin="round"/>
<path d="M24 6.68982C24 9.59691 26.3587 11.9584 29.2564 11.9995" stroke="#141B34" stroke-width="1.5" stroke-linecap="round" stroke-linejoin="round"/>
<path d="M21.3333 6.66663H10.6666C6.89539 6.66663 5.00977 6.66663 3.8382 7.8382C2.66663 9.00977 2.66663 10.8954 2.66663 14.6666V17.3333C2.66663 21.1045 2.66663 22.9901 3.8382 24.1617C5.00977 25.3333 6.89539 25.3333 10.6666 25.3333H21.3333C25.1045 25.3333 26.9901 25.3333 28.1617 24.1617C29.3333 22.9901 29.3333 21.1045 29.3333 17.3333V14.6666C29.3333 10.8954 29.3333 9.00977 28.1617 7.8382C26.9901 6.66663 25.1045 6.66663 21.3333 6.66663Z" stroke="#141B34" stroke-width="1.5" stroke-linecap="round" stroke-linejoin="round"/>
<path d="M20 16C20 18.2092 18.2092 20 16 20C13.7908 20 12 18.2092 12 16C12 13.7908 13.7908 12 16 12C18.2092 12 20 13.7908 20 16Z" stroke="#141B34" stroke-width="1.5" stroke-linecap="round" stroke-linejoin="round"/>
</svg>
