<svg width="32" height="32" viewBox="0 0 32 32" fill="none" xmlns="http://www.w3.org/2000/svg">
<path d="M16 10H18C19.1045 10 20 10.8954 20 12M16 10H14C12.8954 10 12 10.8954 12 12V12.6667C12 13.7712 12.8954 14.6667 14 14.6667H18C19.1045 14.6667 20 15.5621 20 16.6667V17.3333C20 18.4379 19.1045 19.3333 18 19.3333H16M16 10V8M16 19.3333H14C12.8954 19.3333 12 18.4379 12 17.3333M16 19.3333V21.3333" stroke="#141B34" stroke-width="1.5" stroke-linecap="round" stroke-linejoin="round"/>
<path d="M14.5866 28.6832L12.0388 27.0764C11.3921 26.6685 11.0688 26.4646 10.71 26.4529C10.3222 26.4401 9.99316 26.6357 9.29441 27.0764C8.51185 27.5698 6.95575 28.9294 5.94919 28.281C5.33325 27.8844 5.33325 26.8766 5.33325 24.861V10.6667C5.33325 6.8954 5.33325 5.00977 6.43591 3.8382C7.53857 2.66663 9.31327 2.66663 12.8627 2.66663H19.1371C22.6866 2.66663 24.4613 2.66663 25.5639 3.8382C26.6666 5.00977 26.6666 6.8954 26.6666 10.6667V24.861C26.6666 26.8766 26.6666 27.8844 26.0506 28.281C25.0441 28.9294 23.4881 27.5698 22.7054 27.0764C22.0587 26.6685 21.7355 26.4646 21.3766 26.4529C20.9889 26.4401 20.6598 26.6357 19.9611 27.0764L17.4133 28.6832C16.7259 29.1165 16.3823 29.3333 15.9999 29.3333C15.6175 29.3333 15.2738 29.1165 14.5866 28.6832Z" stroke="#141B34" stroke-width="1.5" stroke-linecap="round" stroke-linejoin="round"/>
</svg>
