<svg width="32" height="32" viewBox="0 0 32 32" fill="none" xmlns="http://www.w3.org/2000/svg">
<path d="M4 14.6488V20.6576C4 24.4343 4 26.3227 5.17157 27.496C6.34315 28.6693 8.22876 28.6693 12 28.6693H20.0001C23.7713 28.6693 25.6569 28.6693 26.8285 27.496C28.0001 26.3227 28.0001 24.4343 28.0001 20.6576V14.6488" stroke="#141B34" stroke-width="1.5"/>
<path d="M9.3335 23.9655H14.6669" stroke="#141B34" stroke-width="1.5" stroke-linecap="round"/>
<path d="M23.7276 3.33403L8.19985 3.37276C5.88229 3.25352 5.28808 5.03816 5.28808 5.91058C5.28808 6.69083 5.18748 7.82831 3.76706 9.9662C2.34665 12.1041 2.45338 12.7392 3.25436 14.2192C3.91912 15.4476 5.60996 15.9274 6.49157 16.0082C9.29185 16.0718 10.6543 13.6531 10.6543 11.9533C12.0434 16.2244 15.9941 16.2244 17.7545 15.736C19.5181 15.2467 21.0291 13.4952 21.3855 11.9533C21.5935 13.8695 22.2243 14.9878 24.0884 15.756C26.0193 16.5519 27.68 15.3355 28.5131 14.5558C29.3463 13.776 29.8809 12.0449 28.3957 10.1423C27.3715 8.83014 26.9447 7.59402 26.8044 6.31287C26.7232 5.57054 26.6517 4.77286 26.1296 4.26524C25.3664 3.52342 24.2715 3.29834 23.7276 3.33403Z" stroke="#141B34" stroke-width="1.5" stroke-linecap="round" stroke-linejoin="round"/>
</svg>
