<svg width="32" height="32" viewBox="0 0 32 32" fill="none" xmlns="http://www.w3.org/2000/svg">
<path d="M3.33337 16C3.33337 10.0289 3.33337 7.04336 5.18836 5.18836C7.04336 3.33337 10.0289 3.33337 16 3.33337C21.9711 3.33337 24.9567 3.33337 26.8118 5.18836C28.6667 7.04336 28.6667 10.0289 28.6667 16C28.6667 21.9711 28.6667 24.9567 26.8118 26.8118C24.9567 28.6667 21.9711 28.6667 16 28.6667C10.0289 28.6667 7.04336 28.6667 5.18836 26.8118C3.33337 24.9567 3.33337 21.9711 3.33337 16Z" stroke="#141B34" stroke-width="1.5" stroke-linejoin="round"/>
<path d="M14.0479 14.6766C12.9545 14.5221 10.4623 14.7778 9.24019 17.0376C8.01811 19.2972 9.24977 21.649 10.0184 22.5425C10.7773 23.3784 13.1897 24.9613 15.7486 23.4158C16.3828 23.0328 17.173 22.747 18.0694 19.7537L17.9651 7.97522C17.7922 9.27221 19.2248 12.3143 23.304 12.6742" stroke="#141B34" stroke-width="1.5" stroke-linecap="round" stroke-linejoin="round"/>
</svg>
