<svg width="32" height="32" viewBox="0 0 32 32" fill="none" xmlns="http://www.w3.org/2000/svg">
<path d="M2.66663 18.6667C2.66663 13.6384 2.66663 11.1242 4.22872 9.56209C5.79083 8 8.30497 8 13.3333 8H18.6666C23.6949 8 26.2092 8 27.7712 9.56209C29.3333 11.1242 29.3333 13.6384 29.3333 18.6667C29.3333 23.6949 29.3333 26.2092 27.7712 27.7712C26.2092 29.3333 23.6949 29.3333 18.6666 29.3333H13.3333C8.30497 29.3333 5.79083 29.3333 4.22872 27.7712C2.66663 26.2092 2.66663 23.6949 2.66663 18.6667Z" stroke="#141B34" stroke-width="2" stroke-linecap="round"/>
<path d="M12 3.99996L16 7.99996L21.3333 2.66663" stroke="#141B34" stroke-width="2" stroke-linecap="round" stroke-linejoin="round"/>
</svg>
